# xmcd
#
# Track frame offsets: 
#        150
#        18517
#        37762
#        54215
#        83220
#        98595
#        110450
#        134662
#        153645
#        170082
#        187575
#        207192
#
# Disc length: 2958 seconds
#
# Revision: 3
# Processed by: cddbd v1.5.2PL0 Copyright (c) Steve Scherf et al.
# Submitted via: ExactAudioCopy v1.0b3
#
DISCID=910b8c0c
DTITLE=Joan Manuel Serrat - Serrat, J ~ En Directo
DYEAR=1984
DGENRE=Folk
TTITLE0=Serrat, J ~ Temps era temps
TTITLE1=Serrat, J ~ Sinceramente tuyo
TTITLE2=Serrat, J ~ Cambalache
TTITLE3=Serrat, J ~ La Tieta
TTITLE4=Serrat, J ~ El Titiritero
TTITLE5=Serrat, J ~ La Saeta
TTITLE6=Serrat, J ~ Cada loco con su tema
TTITLE7=Serrat, J ~ Esos locos bajitos
TTITLE8=Serrat, J ~ Fiesta
TTITLE9=Serrat, J ~ Paraules d'amor
TTITLE10=Serrat, J ~ Penelope
TTITLE11=Serrat, J ~ Lucia
EXTD=
EXTT0=
EXTT1=
EXTT2=
EXTT3=
EXTT4=
EXTT5=
EXTT6=
EXTT7=
EXTT8=
EXTT9=
EXTT10=
EXTT11=
PLAYORDER=
